<svg width="1681" height="130" viewBox="0 0 1681 130" fill="none" xmlns="http://www.w3.org/2000/svg">
<rect x="32.2802" width="45.6509" height="45.6509" transform="rotate(45 32.2802 0)" fill="#17605D"/>
<rect x="32.2802" y="64.6716" width="45.6509" height="45.6509" transform="rotate(45 32.2802 64.6716)" fill="#17605D"/>
<rect x="96.9517" width="45.6509" height="45.6509" transform="rotate(45 96.9517 0)" fill="#17605D"/>
<rect x="96.9517" y="64.6716" width="45.6509" height="45.6509" transform="rotate(45 96.9517 64.6716)" fill="#17605D"/>
<rect x="161.623" width="45.6509" height="45.6509" transform="rotate(45 161.623 0)" fill="#17605D"/>
<rect x="161.623" y="64.6716" width="45.6509" height="45.6509" transform="rotate(45 161.623 64.6716)" fill="#17605D"/>
<rect x="226.296" width="45.6509" height="45.6509" transform="rotate(45 226.296 0)" fill="#17605D"/>
<rect x="226.296" y="64.6716" width="45.6509" height="45.6509" transform="rotate(45 226.296 64.6716)" fill="#17605D"/>
<rect x="290.968" width="45.6509" height="45.6509" transform="rotate(45 290.968 0)" fill="#17605D"/>
<rect x="290.968" y="64.6716" width="45.6509" height="45.6509" transform="rotate(45 290.968 64.6716)" fill="#17605D"/>
<rect x="355.64" width="45.6509" height="45.6509" transform="rotate(45 355.64 0)" fill="#17605D"/>
<rect x="355.64" y="64.6716" width="45.6509" height="45.6509" transform="rotate(45 355.64 64.6716)" fill="#17605D"/>
<rect x="420.312" width="45.6509" height="45.6509" transform="rotate(45 420.312 0)" fill="#17605D"/>
<rect x="420.312" y="64.6716" width="45.6509" height="45.6509" transform="rotate(45 420.312 64.6716)" fill="#17605D"/>
<rect x="484.984" width="45.6509" height="45.6509" transform="rotate(45 484.984 0)" fill="#17605D"/>
<rect x="484.984" y="64.6716" width="45.6509" height="45.6509" transform="rotate(45 484.984 64.6716)" fill="#17605D"/>
<rect x="549.656" width="45.6509" height="45.6509" transform="rotate(45 549.656 0)" fill="#17605D"/>
<rect x="549.656" y="64.6716" width="45.6509" height="45.6509" transform="rotate(45 549.656 64.6716)" fill="#17605D"/>
<rect x="614.328" width="45.6509" height="45.6509" transform="rotate(45 614.328 0)" fill="#17605D"/>
<rect x="614.328" y="64.6716" width="45.6509" height="45.6509" transform="rotate(45 614.328 64.6716)" fill="#17605D"/>
<rect x="679" width="45.6509" height="45.6509" transform="rotate(45 679 0)" fill="#17605D"/>
<rect x="679" y="64.6716" width="45.6509" height="45.6509" transform="rotate(45 679 64.6716)" fill="#17605D"/>
<rect x="743.672" width="45.6509" height="45.6509" transform="rotate(45 743.672 0)" fill="#17605D"/>
<rect x="743.672" y="64.6716" width="45.6509" height="45.6509" transform="rotate(45 743.672 64.6716)" fill="#17605D"/>
<rect x="808.344" width="45.6509" height="45.6509" transform="rotate(45 808.344 0)" fill="#17605D"/>
<rect x="808.344" y="64.6716" width="45.6509" height="45.6509" transform="rotate(45 808.344 64.6716)" fill="#17605D"/>
<rect x="873.018" width="45.6509" height="45.6509" transform="rotate(45 873.018 0)" fill="#17605D"/>
<rect x="873.018" y="64.6716" width="45.6509" height="45.6509" transform="rotate(45 873.018 64.6716)" fill="#17605D"/>
<rect x="937.688" width="45.6509" height="45.6509" transform="rotate(45 937.688 0)" fill="#17605D"/>
<rect x="937.688" y="64.6716" width="45.6509" height="45.6509" transform="rotate(45 937.688 64.6716)" fill="#17605D"/>
<rect x="1002.36" width="45.6509" height="45.6509" transform="rotate(45 1002.36 0)" fill="#17605D"/>
<rect x="1002.36" y="64.6716" width="45.6509" height="45.6509" transform="rotate(45 1002.36 64.6716)" fill="#17605D"/>
<rect x="1067.03" width="45.6509" height="45.6509" transform="rotate(45 1067.03 0)" fill="#17605D"/>
<rect x="1067.03" y="64.6716" width="45.6509" height="45.6509" transform="rotate(45 1067.03 64.6716)" fill="#17605D"/>
<rect x="1131.7" width="45.6509" height="45.6509" transform="rotate(45 1131.7 0)" fill="#17605D"/>
<rect x="1131.7" y="64.6716" width="45.6509" height="45.6509" transform="rotate(45 1131.7 64.6716)" fill="#17605D"/>
<rect x="1196.38" width="45.6509" height="45.6509" transform="rotate(45 1196.38 0)" fill="#17605D"/>
<rect x="1196.38" y="64.6716" width="45.6509" height="45.6509" transform="rotate(45 1196.38 64.6716)" fill="#17605D"/>
<rect x="1261.05" width="45.6509" height="45.6509" transform="rotate(45 1261.05 0)" fill="#17605D"/>
<rect x="1325.74" width="45.6509" height="45.6509" transform="rotate(45 1325.74 0)" fill="#17605D"/>
<rect x="1519.28" width="45.6509" height="45.6509" transform="rotate(45 1519.28 0)" fill="#17605D"/>
<rect x="1325.74" y="64.2271" width="45.6509" height="45.6509" transform="rotate(45 1325.74 64.2271)" fill="#17605D"/>
<rect x="1519.28" y="64.2271" width="45.6509" height="45.6509" transform="rotate(45 1519.28 64.2271)" fill="#17605D"/>
<rect x="1389.97" width="45.6509" height="45.6509" transform="rotate(45 1389.97 0)" fill="#17605D"/>
<rect x="1583.51" width="45.6509" height="45.6509" transform="rotate(45 1583.51 0)" fill="#17605D"/>
<rect x="1389.97" y="64.2271" width="45.6509" height="45.6509" transform="rotate(45 1389.97 64.2271)" fill="#17605D"/>
<rect x="1583.51" y="64.2271" width="45.6509" height="45.6509" transform="rotate(45 1583.51 64.2271)" fill="#17605D"/>
<rect x="1455.09" width="45.6509" height="45.6509" transform="rotate(45 1455.09 0)" fill="#17605D"/>
<rect x="1648.63" width="45.6509" height="45.6509" transform="rotate(45 1648.63 0)" fill="#17605D"/>
<rect x="1455.09" y="64.2271" width="45.6509" height="45.6509" transform="rotate(45 1455.09 64.2271)" fill="#17605D"/>
<rect x="1648.63" y="64.2271" width="45.6509" height="45.6509" transform="rotate(45 1648.63 64.2271)" fill="#17605D"/>
<rect x="1261.05" y="64.6716" width="45.6509" height="45.6509" transform="rotate(45 1261.05 64.6716)" fill="#17605D"/>
</svg>
